REM DIRINDEX 1\2,1\3,1\4,1\6,1\5\7,1\5\8
REM DIRNAME cjc114,folder01,folder02,folder03,folder04,folder05,folder06,folder07
TITLE ""
FILE "DB4500_5th_6C_49.mp3" MP3
  TRACK 01 AUDIO
    TITLE "0:"
    INDEX 01 00:00:00
  TRACK 02 AUDIO
    TITLE "2:cjc114_5060"
    INDEX 01 00:00:03
  TRACK 03 AUDIO
    TITLE "0:"
    INDEX 01 00:01:21
  TRACK 04 AUDIO
    TITLE "3:cjc114_5061"
    INDEX 01 00:01:40
  TRACK 05 AUDIO
    TITLE "0:"
    INDEX 01 00:03:19
  TRACK 06 AUDIO
    TITLE "4:cjc114_5062"
    INDEX 01 00:03:35
  TRACK 07 AUDIO
    TITLE "0:"
    INDEX 01 00:05:69
  TRACK 08 AUDIO
    TITLE "2:cjc114_5063"
    INDEX 01 00:06:39
  TRACK 09 AUDIO
    TITLE "0:"
    INDEX 01 00:07:58
  TRACK 10 AUDIO
    TITLE "3:cjc114_5064"
    INDEX 01 00:08:01
  TRACK 11 AUDIO
    TITLE "0:"
    INDEX 01 00:09:34
  TRACK 12 AUDIO
    TITLE "4:cjc114_5065"
    INDEX 01 00:09:55
  TRACK 13 AUDIO
    TITLE "0:"
    INDEX 01 00:12:50
  TRACK 14 AUDIO
    TITLE "2:cjc114_5066"
    INDEX 01 00:13:20
  TRACK 15 AUDIO
    TITLE "0:"
    INDEX 01 00:14:35
  TRACK 16 AUDIO
    TITLE "3:cjc114_5067"
    INDEX 01 00:14:58
  TRACK 17 AUDIO
    TITLE "0:"
    INDEX 01 00:16:02
  TRACK 18 AUDIO
    TITLE "4:cjc114_5068"
    INDEX 01 00:16:24
  TRACK 19 AUDIO
    TITLE "0:"
    INDEX 01 00:19:26
  TRACK 20 AUDIO
    TITLE "2:cjc114_5069"
    INDEX 01 00:19:69
  TRACK 21 AUDIO
    TITLE "0:"
    INDEX 01 00:21:19
  TRACK 22 AUDIO
    TITLE "3:cjc114_5070"
    INDEX 01 00:21:41
  TRACK 23 AUDIO
    TITLE "0:"
    INDEX 01 00:23:18
  TRACK 24 AUDIO
    TITLE "4:cjc114_5071"
    INDEX 01 00:23:42
  TRACK 25 AUDIO
    TITLE "0:"
    INDEX 01 00:25:64
  TRACK 26 AUDIO
    TITLE "2:cjc114_5072"
    INDEX 01 00:26:34
  TRACK 27 AUDIO
    TITLE "0:"
    INDEX 01 00:27:47
  TRACK 28 AUDIO
    TITLE "3:cjc114_5073"
    INDEX 01 00:27:67
  TRACK 29 AUDIO
    TITLE "0:"
    INDEX 01 00:29:13
  TRACK 30 AUDIO
    TITLE "4:cjc114_5074"
    INDEX 01 00:29:33
  TRACK 31 AUDIO
    TITLE "0:"
    INDEX 01 00:33:21
  TRACK 32 AUDIO
    TITLE "2:cjc114_5075"
    INDEX 01 00:33:66
  TRACK 33 AUDIO
    TITLE "0:"
    INDEX 01 00:34:63
  TRACK 34 AUDIO
    TITLE "3:cjc114_5076"
    INDEX 01 00:35:08
  TRACK 35 AUDIO
    TITLE "0:"
    INDEX 01 00:36:31
  TRACK 36 AUDIO
    TITLE "4:cjc114_5077"
    INDEX 01 00:36:54
  TRACK 37 AUDIO
    TITLE "0:"
    INDEX 01 00:39:51
  TRACK 38 AUDIO
    TITLE "2:cjc114_5078"
    INDEX 01 00:40:19
  TRACK 39 AUDIO
    TITLE "0:"
    INDEX 01 00:41:34
  TRACK 40 AUDIO
    TITLE "3:cjc114_5079"
    INDEX 01 00:41:57
  TRACK 41 AUDIO
    TITLE "0:"
    INDEX 01 00:43:05
  TRACK 42 AUDIO
    TITLE "4:cjc114_5080"
    INDEX 01 00:43:27
  TRACK 43 AUDIO
    TITLE "0:"
    INDEX 01 00:46:31
  TRACK 44 AUDIO
    TITLE "2:cjc114_5081"
    INDEX 01 00:46:74
  TRACK 45 AUDIO
    TITLE "0:"
    INDEX 01 00:48:32
  TRACK 46 AUDIO
    TITLE "3:cjc114_5082"
    INDEX 01 00:48:55
  TRACK 47 AUDIO
    TITLE "0:"
    INDEX 01 00:50:25
  TRACK 48 AUDIO
    TITLE "4:cjc114_5083"
    INDEX 01 00:50:48
  TRACK 49 AUDIO
    TITLE "0:"
    INDEX 01 00:54:62
  TRACK 50 AUDIO
    TITLE "2:cjc114_5084"
    INDEX 01 00:55:30
  TRACK 51 AUDIO
    TITLE "0:"
    INDEX 01 00:56:57
  TRACK 52 AUDIO
    TITLE "3:cjc114_5085"
    INDEX 01 00:56:74
  TRACK 53 AUDIO
    TITLE "0:"
    INDEX 01 00:58:20
  TRACK 54 AUDIO
    TITLE "4:cjc114_5086"
    INDEX 01 00:58:40
  TRACK 55 AUDIO
    TITLE "0:"
    INDEX 01 01:03:00
  TRACK 56 AUDIO
    TITLE "2:cjc114_5087"
    INDEX 01 01:03:41
  TRACK 57 AUDIO
    TITLE "0:"
    INDEX 01 01:04:66
  TRACK 58 AUDIO
    TITLE "3:cjc114_5088"
    INDEX 01 01:05:11
  TRACK 59 AUDIO
    TITLE "0:"
    INDEX 01 01:06:47
  TRACK 60 AUDIO
    TITLE "4:cjc114_5089"
    INDEX 01 01:06:69
  TRACK 61 AUDIO
    TITLE "0:"
    INDEX 01 01:13:34
  TRACK 62 AUDIO
    TITLE "2:cjc114_5090"
    INDEX 01 01:14:02
  TRACK 63 AUDIO
    TITLE "0:"
    INDEX 01 01:15:13
  TRACK 64 AUDIO
    TITLE "3:cjc114_5091"
    INDEX 01 01:15:33
  TRACK 65 AUDIO
    TITLE "0:"
    INDEX 01 01:16:52
  TRACK 66 AUDIO
    TITLE "4:cjc114_5092"
    INDEX 01 01:16:71
  TRACK 67 AUDIO
    TITLE "0:"
    INDEX 01 01:20:18
  TRACK 68 AUDIO
    TITLE "2:cjc114_5093"
    INDEX 01 01:20:61
  TRACK 69 AUDIO
    TITLE "0:"
    INDEX 01 01:21:72
  TRACK 70 AUDIO
    TITLE "3:cjc114_5094"
    INDEX 01 01:22:21
  TRACK 71 AUDIO
    TITLE "0:"
    INDEX 01 01:23:48
  TRACK 72 AUDIO
    TITLE "4:cjc114_5095"
    INDEX 01 01:23:67
  TRACK 73 AUDIO
    TITLE "0:"
    INDEX 01 01:27:32
  TRACK 74 AUDIO
    TITLE "2:cjc114_5096"
    INDEX 01 01:27:71
  TRACK 75 AUDIO
    TITLE "0:"
    INDEX 01 01:28:74
  TRACK 76 AUDIO
    TITLE "3:cjc114_5097"
    INDEX 01 01:29:19
  TRACK 77 AUDIO
    TITLE "0:"
    INDEX 01 01:30:48
  TRACK 78 AUDIO
    TITLE "4:cjc114_5098"
    INDEX 01 01:30:69
  TRACK 79 AUDIO
    TITLE "0:"
    INDEX 01 01:34:32
  TRACK 80 AUDIO
    TITLE "2:cjc114_5099"
    INDEX 01 01:34:73
  TRACK 81 AUDIO
    TITLE "0:"
    INDEX 01 01:36:19
  TRACK 82 AUDIO
    TITLE "3:cjc114_5100"
    INDEX 01 01:36:39
  TRACK 83 AUDIO
    TITLE "0:"
    INDEX 01 01:37:60
  TRACK 84 AUDIO
    TITLE "4:cjc114_5101"
    INDEX 01 01:38:04
  TRACK 85 AUDIO
    TITLE "0:"
    INDEX 01 01:41:42
  TRACK 86 AUDIO
    TITLE "2:cjc114_5102"
    INDEX 01 01:42:06
  TRACK 87 AUDIO
    TITLE "0:"
    INDEX 01 01:43:09
  TRACK 88 AUDIO
    TITLE "3:cjc114_5103"
    INDEX 01 01:43:31
  TRACK 89 AUDIO
    TITLE "0:"
    INDEX 01 01:44:52
  TRACK 90 AUDIO
    TITLE "4:cjc114_5104"
    INDEX 01 01:44:72
  TRACK 91 AUDIO
    TITLE "0:"
    INDEX 01 01:48:42
  TRACK 92 AUDIO
    TITLE "2:cjc114_5105"
    INDEX 01 01:49:08
  TRACK 93 AUDIO
    TITLE "0:"
    INDEX 01 01:50:00
  TRACK 94 AUDIO
    TITLE "3:cjc114_5106"
    INDEX 01 01:50:23
  TRACK 95 AUDIO
    TITLE "0:"
    INDEX 01 01:51:30
  TRACK 96 AUDIO
    TITLE "4:cjc114_5107"
    INDEX 01 01:51:50
  TRACK 97 AUDIO
    TITLE "0:"
    INDEX 01 01:56:10
